<?xml version="1.0" encoding="utf-8"?>
<!-- Generator: Adobe Illustrator 17.1.0, SVG Export Plug-In . SVG Version: 6.00 Build 0)  -->
<!DOCTYPE svg PUBLIC "-//W3C//DTD SVG 1.1//EN" "http://www.w3.org/Graphics/SVG/1.1/DTD/svg11.dtd">
<svg version="1.1" id="Layer_1" xmlns="http://www.w3.org/2000/svg" xmlns:xlink="http://www.w3.org/1999/xlink" x="0px" y="0px"
	 viewBox="0 0 500 500" enable-background="new 0 0 500 500" xml:space="preserve">
<rect width="500" height="500"/>
<g>
	<polygon fill="#FFFFFF" points="130,226.7 130,268.7 161.4,247.7 	"/>
	<polygon fill="#FFFFFF" points="238.5,196.1 238.5,137.5 140,203.2 184,232.6 	"/>
	<polygon fill="#FFFFFF" points="362.1,203.2 263.6,137.5 263.6,196.1 318.1,232.6 	"/>
	<polygon fill="#FFFFFF" points="140,292.3 238.5,357.9 238.5,299.3 184,262.8 	"/>
	<polygon fill="#FFFFFF" points="263.6,299.3 263.6,357.9 362.1,292.3 318.1,262.8 	"/>
	<polygon fill="#FFFFFF" points="251.1,218 206.6,247.7 251.1,277.4 295.5,247.7 	"/>
	<path fill="#FFFFFF" d="M266.6,11.7C123.8,2.6,6,120.4,15.1,263.2c7.5,118.2,102.3,213,220.6,220.6
		c142.8,9.1,260.5-108.7,251.5-251.5C479.6,114,384.8,19.2,266.6,11.7z M104.8,292.4c0-3.7,0-89.1,0-89.1l0-0.5c0-4,2.1-7.7,5.4-9.8
		l0.1,0L244,103.8c4.2-2.8,9.7-2.8,13.9,0c0,0,130.6,87.1,133.7,89.1s5.5,5,5.5,10.4c0,3.8,0,85.2,0,89s-2.3,8.4-5.3,10.4
		S258,391.9,258,391.9c-2.1,1.4-4.5,2.1-7,2.1c-2.4,0-4.9-0.7-7-2.1c0,0-130.6-87.1-133.7-89.1S104.8,296.8,104.8,292.4z"/>
	<polygon fill="#FFFFFF" points="372.2,268.7 372.2,226.7 340.7,247.7 	"/>
</g>
</svg>
